<?xml version="1.0" encoding="UTF-8"?>
<svg id="Ebene_1" data-name="Ebene 1" xmlns="http://www.w3.org/2000/svg" version="1.1" viewBox="0 0 47.2 47.2">
  <defs>
    <style>
      .cls-1 {
        fill: #000;
      }

      .cls-1, .cls-2 {
        stroke-width: 0px;
      }

      .cls-2 {
        fill: #fff;
      }
    </style>
  </defs>
  <circle class="cls-1" cx="23.6" cy="23.6" r="23.6"/>
  <path class="cls-2" d="M26.6,10.5c-1.4-1.7-2.7-3.4-2.9-3.8,0,0,0,0,0,0-.2.4-1.5,2.1-2.9,3.8-12.2,15.6,1.9,26,1.9,26h.1c.1,1.7.4,4,.4,4h1.1s.3-2.3.4-4h.1c0,0,14.2-10.6,1.9-26.1h0ZM23.6,36.3s-.6-.5-.8-.8h0s.8-17,.8-17c0,0,0,0,0,0l.8,16.9h0c-.2.3-.8.8-.8.8Z"/>
</svg>