<?xml version="1.0" encoding="UTF-8"?><svg id="Ebene_1" xmlns="http://www.w3.org/2000/svg" viewBox="0 0 47.22 47.22"><defs><style>.cls-1{fill:#000;}.cls-1,.cls-2{stroke-width:0px;}.cls-2{fill:#fff;}</style></defs><circle class="cls-1" cx="23.61" cy="23.61" r="23.61"/><path class="cls-2" d="M19.72,28.68h-6.83l-1.39,4.44c-.04.16-.19.28-.35.27h-3.46c-.2,0-.27-.11-.21-.33l5.92-17.4c.06-.18.12-.36.18-.59.08-.4.12-.82.12-1.23-.02-.12.09-.23.21-.21h4.7c.14,0,.22.05.24.15l6.72,19.32c.06.2,0,.3-.18.3h-3.85c-.13.02-.26-.08-.3-.21l-1.51-4.5ZM13.95,24.94h4.67c-.77-2.62-1.63-5.21-2.34-7.86-.8,2.74-1.53,5.29-2.34,7.86Z"/><path class="cls-2" d="M30.54,26.97c.27,2.25,2.16,3.33,4.26,3.28,1.18-.02,2.44-.21,3.55-.65.1-.08.15-.03.15.15v2.88c0,.15-.05.28-.18.36-1.37.62-2.95.81-4.44.79-4.44,0-7.49-3.13-7.48-7.68-.01-4.31,2.79-7.95,7.13-7.95,3.68-.1,6.23,2.85,6.24,6.52,0,.67-.04,1.34-.12,2-.02.14-.13.24-.27.24-2.94,0-5.9.04-8.84.04ZM30.54,24.2c1.64,0,3.29.06,4.93-.02.25-.03.43-.07.43-.33-.03-1.36-1.18-2.48-2.51-2.43-1.61-.1-2.64,1.26-2.84,2.77Z"/></svg>