<?xml version="1.0" encoding="UTF-8"?><svg id="Ebene_1" xmlns="http://www.w3.org/2000/svg" viewBox="0 0 47.22 47.22"><defs><style>.cls-1{fill:#000;}.cls-1,.cls-2{stroke-width:0px;}.cls-2{fill:#fff;}</style></defs><circle class="cls-1" cx="23.61" cy="23.61" r="23.61"/><path class="cls-2" d="M9.86,10.42l2.5,28.06,11.23,3.12,11.26-3.12,2.5-28.06H9.86ZM32.71,36.69l-9.1,2.52h0l-9.1-2.52-2.14-23.98h22.48l-2.14,23.98Z"/><polygon class="cls-2" points="23.61 16.15 23.6 16.15 14.98 16.15 15.29 19.6 23.6 19.6 23.61 19.6 28.45 19.6 28.14 23.12 23.61 23.12 23.6 23.12 15.6 23.12 15.91 26.56 23.6 26.56 23.61 26.56 27.84 26.56 27.44 31.03 23.6 32.06 23.6 32.06 23.6 32.06 19.76 31.03 19.52 28.28 17.65 28.28 16.06 28.28 16.54 33.69 23.6 35.65 23.61 35.64 23.61 35.64 30.66 33.69 30.71 33.11 31.52 24.05 31.6 23.12 32.22 16.15 23.61 16.15"/></svg>