<?xml version="1.0" encoding="UTF-8"?>
<svg id="Ebene_1" data-name="Ebene 1" xmlns="http://www.w3.org/2000/svg" version="1.1" viewBox="0 0 47.2 47.2">
  <defs>
    <style>
      .cls-1 {
        fill: #000;
      }

      .cls-1, .cls-2 {
        stroke-width: 0px;
      }

      .cls-2 {
        fill: #fff;
      }
    </style>
  </defs>
  <circle class="cls-1" cx="23.6" cy="23.6" r="23.6"/>
  <path class="cls-2" d="M15.2,27.5c0,1.7-1.4,3-3.1,3s-3.1-1.4-3.1-3,1.4-3,3.1-3h3.1v3ZM16.7,27.5c0-1.7,1.4-3,3-3s3,1.4,3,3v7.6c0,1.7-1.4,3-3,3s-3-1.4-3-3v-7.6Z"/>
  <path class="cls-2" d="M19.8,15.2c-1.7,0-3-1.4-3-3.1s1.4-3.1,3-3.1,3,1.4,3,3.1v3.1h-3ZM19.8,16.8c1.7,0,3,1.4,3,3s-1.4,3-3,3h-7.6c-1.7,0-3.1-1.4-3.1-3s1.4-3,3.1-3h7.6Z"/>
  <path class="cls-2" d="M32,19.8c0-1.7,1.4-3,3-3s3,1.4,3,3-1.4,3-3,3h-3v-3ZM30.5,19.8c0,1.7-1.4,3-3,3s-3-1.4-3-3v-7.6c0-1.7,1.4-3.1,3-3.1s3,1.4,3,3.1v7.6Z"/>
  <path class="cls-2" d="M27.4,32c1.7,0,3,1.4,3,3s-1.4,3-3,3-3-1.4-3-3v-3h3ZM27.4,30.5c-1.7,0-3-1.4-3-3s1.4-3,3-3h7.6c1.7,0,3,1.4,3,3s-1.4,3-3,3h-7.6Z"/>
</svg>