<?xml version="1.0" encoding="UTF-8"?><svg id="img" xmlns="http://www.w3.org/2000/svg" viewBox="0 0 310 310"><defs><style>.cls-1{fill:#000;stroke-width:0px;}</style></defs><path class="cls-1" d="M133.13,124.58c0,10.89-8.74,19.71-19.53,19.71s-19.53-8.82-19.53-19.71c0-10.89,8.74-19.71,19.53-19.71,10.78,0,19.53,8.82,19.53,19.71h0Z"/><path class="cls-1" d="M233.1,63.01H76.9c-14.38,0-26.03,11.77-26.03,26.28v131.41c0,14.51,11.66,26.28,26.03,26.28h156.2c14.38,0,26.03-11.77,26.03-26.28V89.3c0-14.51-11.66-26.28-26.03-26.28ZM76.9,76.16h156.2c7.19,0,13.02,5.88,13.02,13.14v85.31s-49.12-25.56-49.12-25.56c-2.54-1.29-5.6-.79-7.62,1.24l-48.24,48.7-34.56-23.24c-2.6-1.75-6.1-1.4-8.31.82l-34.38,30.88v-118.14c0-7.26,5.83-13.14,13.02-13.14ZM63.88,207.56h0"/></svg>