<?xml version="1.0" encoding="UTF-8"?><svg id="Ebene_1" xmlns="http://www.w3.org/2000/svg" viewBox="0 0 47.22 47.22"><defs><style>.cls-1,.cls-2,.cls-3,.cls-4{stroke-width:0px;}.cls-1,.cls-4{fill:#000;}.cls-2,.cls-3{fill:#fff;}.cls-2,.cls-4{fill-rule:evenodd;}</style></defs><path class="cls-2" d="M23.61,46.72C10.87,46.72.5,36.35.5,23.61S10.87.5,23.61.5s23.11,10.37,23.11,23.11-10.37,23.11-23.11,23.11Z"/><path class="cls-1" d="M23.61,1c12.47,0,22.61,10.14,22.61,22.61s-10.14,22.61-22.61,22.61S1,36.08,1,23.61,11.14,1,23.61,1M23.61,0C10.57,0,0,10.57,0,23.61s10.57,23.61,23.61,23.61,23.61-10.57,23.61-23.61S36.65,0,23.61,0h0Z"/><path class="cls-4" d="M23.61,30.07c10.73,0,16.17,3.96,18.77,7.82,3.02-3.97,4.84-8.91,4.84-14.28C47.22,10.57,36.65,0,23.61,0S0,10.57,0,23.61c0,5.37,1.82,10.31,4.84,14.28,2.6-3.86,8.04-7.82,18.77-7.82Z"/><path class="cls-3" d="M33.73,16.87c0,5.59-4.53,10.12-10.12,10.12s-10.12-4.53-10.12-10.12,4.53-10.12,10.12-10.12,10.12,4.53,10.12,10.12"/></svg>