<?xml version="1.0" encoding="UTF-8"?><svg id="Ebene_1" xmlns="http://www.w3.org/2000/svg" viewBox="0 0 47.22 47.22"><defs><style>.cls-1{stroke:#000;stroke-linecap:round;stroke-linejoin:round;}.cls-1,.cls-2{fill:#fff;}.cls-3{fill:#000;}.cls-3,.cls-2{stroke-width:0px;}</style></defs><circle class="cls-3" cx="23.61" cy="23.61" r="23.61"/><path class="cls-1" d="M9.15,25.95h28.92v9.89c0,.66-.53,1.19-1.19,1.19H10.35c-.66,0-1.19-.53-1.19-1.19v-9.89h0Z"/><path class="cls-1" d="M9.15,25.95h28.92v9.89c0,.66-.53,1.19-1.19,1.19H10.35c-.66,0-1.19-.53-1.19-1.19v-9.89h0Z"/><path class="cls-1" d="M9.15,25.96c0,1.57,1.17,2.97,2.74,3.05,1.67.09,3.05-1.24,3.05-2.89,0,1.6,1.29,2.89,2.89,2.89s2.89-1.29,2.89-2.89c0,1.6,1.29,2.89,2.89,2.89s2.89-1.29,2.89-2.89c0,1.6,1.29,2.89,2.89,2.89s2.89-1.29,2.89-2.89c0,1.65,1.38,2.97,3.05,2.89,1.56-.08,2.74-1.49,2.74-3.05v-2.9c0-.78-.64-1.42-1.42-1.42H10.57c-.78,0-1.42.64-1.42,1.42v2.9Z"/><polyline class="cls-2" points="21.91 21.25 21.91 12.86 25.31 12.86 25.31 21.25"/><path class="cls-2" d="M25.19,10.52c0,.87-.71,1.58-1.58,1.58s-1.58-.71-1.58-1.58c0-1.27,1.58-3.62,1.58-3.62,0,0,1.58,2.29,1.58,3.62Z"/></svg>