<?xml version="1.0" encoding="UTF-8"?><svg id="Ebene_1" xmlns="http://www.w3.org/2000/svg" viewBox="0 0 47.22 47.22"><defs><style>.cls-1{stroke:#000;}.cls-1,.cls-2{fill:none;stroke-linecap:round;stroke-linejoin:round;}.cls-2{stroke:#fff;}.cls-3{fill:#000;}.cls-3,.cls-4{stroke-width:0px;}.cls-4{fill:#fff;}</style></defs><circle class="cls-3" cx="23.61" cy="23.61" r="23.61"/><path class="cls-4" d="M11.68,19.71h23.86v11.93c0,2.59-2.1,4.69-4.69,4.69h-14.48c-2.59,0-4.69-2.1-4.69-4.69v-11.93h0Z"/><path class="cls-4" d="M35.19,14.14l-23.51,4.06s2.55-4.52,11.07-5.99c8.52-1.47,12.44,1.93,12.44,1.93Z"/><path class="cls-2" d="M35.54,25.44s1.51-1.33,3.17-1.92c1.76-.63,3.19-.52,3.19-.52"/><path class="cls-2" d="M11.68,25.44s-1.51-1.33-3.17-1.92c-1.76-.63-3.19-.52-3.19-.52"/><path class="cls-2" d="M19.06,13.06l-.26-1.49c-.16-.91.45-1.77,1.36-1.93l4.16-.73c.91-.16,1.77.45,1.93,1.36l.26,1.49"/><path class="cls-1" d="M11.68,19.71h23.86v11.93c0,2.59-2.1,4.69-4.69,4.69h-14.48c-2.59,0-4.69-2.1-4.69-4.69v-11.93h0Z"/><path class="cls-1" d="M35.19,14.14l-23.51,4.06s2.55-4.52,11.07-5.99c8.52-1.47,12.44,1.93,12.44,1.93Z"/></svg>