<?xml version="1.0" encoding="UTF-8"?><svg id="Ebene_1" xmlns="http://www.w3.org/2000/svg" viewBox="0 0 47.22 47.22"><defs><style>.cls-1{fill:#000;}.cls-1,.cls-2{stroke-width:0px;}.cls-2{fill:#fff;}</style></defs><circle class="cls-1" cx="23.61" cy="23.61" r="23.61"/><path class="cls-2" d="M22.85,29.3h-6.83l-1.39,4.43c-.04.16-.19.28-.36.27h-3.46c-.2,0-.27-.11-.21-.33l5.92-17.48c.06-.18.12-.39.18-.62.08-.4.12-.82.12-1.23-.02-.12.09-.23.21-.21h4.7c.14,0,.22.05.24.15l6.72,19.42c.06.2,0,.3-.18.3h-3.85c-.13.02-.26-.08-.3-.21l-1.51-4.49ZM17.08,25.48h4.67c-.77-2.62-1.63-5.21-2.34-7.86-.76,2.65-1.58,5.29-2.34,7.86Z"/><path class="cls-2" d="M32.67,17.35c-.3.01-.6-.04-.88-.16-.28-.11-.53-.29-.74-.51-.21-.23-.37-.5-.48-.8-.11-.3-.15-.61-.14-.93-.01-.31.04-.62.16-.91.11-.29.29-.55.51-.77.22-.21.48-.38.76-.49.28-.11.58-.17.88-.16.71,0,1.27.22,1.67.65.2.23.36.49.47.78.1.29.15.6.14.9.01.32-.04.63-.15.93-.11.3-.28.57-.49.8-.22.23-.49.4-.78.52-.29.11-.61.17-.92.15ZM30.63,33.7v-14.5c0-.18.08-.27.24-.27h3.64c.16,0,.24.09.24.27v14.5c0,.2-.08.3-.24.3h-3.61c-.18,0-.27-.1-.27-.3Z"/></svg>