<?xml version="1.0" encoding="UTF-8"?>
<svg id="Ebene_1" data-name="Ebene 1" xmlns="http://www.w3.org/2000/svg" version="1.1" viewBox="0 0 47.2 47.2">
  <defs>
    <style>
      .cls-1 {
        fill: #000;
      }

      .cls-1, .cls-2 {
        stroke-width: 0px;
      }

      .cls-2 {
        fill: #fff;
      }
    </style>
  </defs>
  <circle class="cls-1" cx="23.6" cy="23.6" r="23.6"/>
  <path class="cls-2" d="M35.2,12.7l-5.8-2.8c-.7-.3-1.5-.2-2,.3l-11,10-4.8-3.6c-.4-.3-1.1-.3-1.5,0l-1.5,1.4c-.5.5-.5,1.3,0,1.7l4.2,3.8-4.2,3.8c-.5.5-.5,1.3,0,1.7l1.5,1.4c.4.4,1,.4,1.5,0l4.8-3.6,11,10c.5.5,1.3.7,2,.3l5.7-2.8c.6-.3,1-.9,1-1.6V14.2c0-.7-.4-1.3-1-1.6h0ZM29.2,30l-8.4-6.3,8.4-6.3v12.7Z"/>
</svg>