<?xml version="1.0" encoding="UTF-8"?><svg id="Ebene_1" xmlns="http://www.w3.org/2000/svg" viewBox="0 0 47.22 47.22"><defs><style>.cls-1{fill:none;stroke:#000;stroke-linecap:round;stroke-miterlimit:10;}.cls-2{fill:#000;}.cls-2,.cls-3{stroke-width:0px;}.cls-3{fill:#fff;}</style></defs><circle class="cls-2" cx="23.61" cy="23.61" r="23.61"/><circle class="cls-3" cx="23.61" cy="9.66" r="4.21"/><path class="cls-3" d="M35.53,32.79h-.54c.86,0,1.56-.7,1.56-1.56s-.7-1.56-1.56-1.56c-1.79,0-3.23-2.42-3.23-4.21v-4.67c0-2.57-2.08-4.65-4.65-4.65h-7.03c-2.57,0-4.65,2.08-4.65,4.65v4.67c0,1.79-1.45,4.21-3.23,4.21-.86,0-1.56.7-1.56,1.56s.7,1.56,1.56,1.56h-.49c-1.28,0-2.32,1.04-2.32,2.32s1.04,2.32,2.32,2.32h5.9c2.06,0,4.22-.69,6.02-1.41,1.84.75,3.88,1.41,6.02,1.41h5.9c1.28,0,2.32-1.04,2.32-2.32s-1.04-2.32-2.32-2.32Z"/><circle class="cls-1" cx="23.61" cy="9.66" r="4.21"/><path class="cls-1" d="M15.42,25.46v-4.67c0-2.57,2.08-4.65,4.65-4.65h7.03c2.57,0,4.65,2.08,4.65,4.65v4.67"/><path class="cls-1" d="M34.99,29.67c-1.79,0-3.23-2.42-3.23-4.21"/><path class="cls-1" d="M34.99,29.67c.86,0,1.56.7,1.56,1.56s-.7,1.56-1.56,1.56"/><path class="cls-1" d="M12.18,29.67c1.79,0,3.23-2.42,3.23-4.21"/><path class="cls-1" d="M12.18,32.8c4.24,0,6.69-3.43,6.69-7.67v-2.34"/><path class="cls-1" d="M12.18,29.67c-.86,0-1.56.7-1.56,1.56s.7,1.56,1.56,1.56"/><path class="cls-1" d="M17.59,37.43h-5.9c-1.28,0-2.32-1.04-2.32-2.32s1.04-2.32,2.32-2.32"/><path class="cls-1" d="M35.04,32.8c-4.24,0-6.69-3.43-6.69-7.67v-2.34"/><path class="cls-1" d="M29.63,37.43h5.9c1.28,0,2.32-1.04,2.32-2.32s-1.04-2.32-2.32-2.32"/><path class="cls-1" d="M29.63,37.43c-4.96,0-9.43-3.56-12.04-3.56"/><path class="cls-1" d="M23.61,36.02c-1.84.75-3.89,1.41-6.02,1.41"/></svg>