<?xml version="1.0" encoding="UTF-8"?><svg id="Ebene_1" xmlns="http://www.w3.org/2000/svg" viewBox="0 0 47.22 47.22"><defs><style>.cls-1{fill:#000;}.cls-1,.cls-2{stroke-width:0px;}.cls-2{fill:#fff;}</style></defs><circle class="cls-1" cx="23.61" cy="23.61" r="23.61"/><path class="cls-2" d="M30.6,39.02c-.44.03-1.23-.24-2.02-.5-.7-.23-1.4-.47-2.09-.71-3.61-1.23-6.67-3.33-9.38-5.97-1.88-1.84-3.61-3.81-5.05-6.02-.91-1.4-1.55-2.95-2.09-4.53-.4-1.18-.82-2.37-1.1-3.59-.39-1.71-.01-3.34.76-4.88.25-.51.56-.99.86-1.47.7-1.16,1.71-1.85,3.07-1.99.54-.05,1.08-.11,1.62-.12.17,0,.39.09.49.22.24.3.45.63.64.96.73,1.29,1.44,2.6,2.18,3.89.24.42.54.8.8,1.2.31.48.39,1,0,1.45-.43.5-.91.96-1.4,1.4-.48.43-1.02.78-1.49,1.21-.77.7-.85,1.21-.33,2.11.96,1.67,1.94,3.32,3.2,4.79,1.52,1.77,3.35,3.14,5.35,4.3.61.36,1.24.69,1.87,1.01.47.24.92.12,1.26-.25.58-.63,1.12-1.3,1.68-1.95.3-.35.59-.71.92-1.03.52-.49,1.08-.55,1.69-.2.6.35,1.18.75,1.78,1.1,1.28.73,2.56,1.45,3.86,2.16.64.35.95.82.74,1.57-.22.81-.35,1.66-.64,2.44-.15.42-.51.8-.86,1.1-1.7,1.47-3.7,2.2-6.35,2.27Z"/></svg>