<?xml version="1.0" encoding="UTF-8"?><svg id="Ebene_1" xmlns="http://www.w3.org/2000/svg" viewBox="0 0 47.22 47.22"><defs><style>.cls-1{fill:#000;}.cls-1,.cls-2{stroke-width:0px;}.cls-2{fill:#fff;}</style></defs><circle class="cls-1" cx="23.61" cy="23.61" r="23.61"/><path class="cls-2" d="M10.36,33.24V13.85c0-.13.06-.21.18-.21,1.9,0,3.8-.11,5.7-.11,3.08,0,6.42,1.05,7.59,4.28.28.79.42,1.6.42,2.45,0,1.62-.37,2.96-1.1,4.01-2.05,2.95-5.61,2.9-8.8,2.9v6.05c.02.18-.13.26-.28.26h-3.49c-.15,0-.22-.08-.22-.25ZM14.36,17.28v6.33c1.26.09,2.59.1,3.8-.3,1.34-.39,2.08-1.55,2.08-2.94.04-1.19-.61-2.32-1.71-2.75-1.2-.5-2.88-.53-4.17-.34Z"/><path class="cls-2" d="M35.71,22.36c-.56-.29-1.15-.51-1.76-.64-.79-.19-3.89-.83-3.89.79.03.91,1.47,1.35,2.1,1.61,2.23.77,4.75,2.13,4.7,4.89.07,3.43-3.25,4.79-6.09,4.79-1.48.02-3.02-.21-4.38-.85-.13-.07-.21-.21-.21-.36v-3.28c-.01-.13.13-.25.24-.15,1.33.8,2.9,1.19,4.44,1.21.68,0,2.02-.07,2.01-1.06,0-.96-1.61-1.4-2.25-1.64-.93-.33-1.81-.79-2.62-1.37-1.13-.81-1.84-2.1-1.82-3.52,0-3.23,3.05-4.67,5.8-4.67,1.29-.01,2.67.08,3.86.61.17.05.21.23.21.39v3.07c.01.19-.2.26-.34.18Z"/></svg>