<?xml version="1.0" encoding="UTF-8"?>
<svg id="img" xmlns="http://www.w3.org/2000/svg" version="1.1" viewBox="0 0 310 310">
  <defs>
    <style>
      .cls-1 {
        fill: #000;
        stroke-width: 0px;
      }
    </style>
  </defs>
  <g>
    <path class="cls-1" d="M82.4,152.1c0,10.6-8.5,19.2-19,19.2s-19-8.6-19-19.2c0-10.6,8.5-19.2,19-19.2,10.5,0,19,8.6,19,19.2"/>
    <g>
      <path class="cls-1" d="M166.2,136.1c2.6-2.7,2.7-7,.2-9.7l-.2-.2s0,0,0,0l-.2-.2c-1.3-1.2-3-1.8-4.7-1.8h0c-1.9,0-3.6.7-5,2.1l-21.1,21.4c-2.7,2.7-2.7,7.2,0,9.9l21.1,21.4c1.3,1.3,3.1,2.1,5,2.1h0c1.9,0,3.7-.7,5-2.1,2.7-2.7,2.7-7.2,0-9.9l-16.2-16.4,16.1-16.3h.1Z"/>
      <path class="cls-1" d="M216.4,106.1c-1.8-.6-3.7-.4-5.3.5-1.7.9-2.9,2.4-3.4,4.2l-24.1,79.3c-1.1,3.7,1,7.6,4.6,8.8.7.2,1.4.3,2.1.3,1.1,0,2.2-.3,3.3-.8,1.7-.9,2.9-2.4,3.4-4.2l24.1-79.3h0c1.1-3.7-1-7.6-4.6-8.8Z"/>
      <path class="cls-1" d="M269.9,148l-21.5-21.8c-1.3-1.3-3.1-2.1-5-2.1h0c-1.8,0-3.4.7-4.7,1.8l-.2.2c-2.7,2.7-2.7,7-.1,9.8l16.3,16.5-16.2,16.4c-2.7,2.7-2.7,7.2,0,9.9,1.3,1.3,3.1,2.1,5,2.1h0c1.9,0,3.7-.7,5-2.1l21.1-21.4c2.5-2.6,2.7-6.6.5-9.4h0Z"/>
      <circle class="cls-1" cx="131.1" cy="69.6" r="8" transform="translate(-10.8 113.1) rotate(-45)"/>
      <circle class="cls-1" cx="151.4" cy="69.6" r="8" transform="translate(-4.9 127.4) rotate(-45)"/>
      <circle class="cls-1" cx="171.7" cy="69.6" r="8" transform="translate(-11.4 41.3) rotate(-13.3)"/>
      <path class="cls-1" d="M278.3,43.5H126.2c-14,0-25.3,11.5-25.3,25.7v128.3c0,14.2,11.3,25.7,25.3,25.7h152c14,0,25.3-11.5,25.3-25.7V69.1c0-14.2-11.3-25.7-25.3-25.7ZM113.6,69.1c0-7.1,5.7-12.8,12.7-12.8h152c7,0,12.7,5.7,12.7,12.8v12.5H113.6s0-12.5,0-12.5ZM290.9,197.4c0,7.1-5.7,12.8-12.7,12.8H126.2c-7,0-12.7-5.7-12.7-12.8v-64.1s0,0,0,0v-39s177.4,0,177.4,0v39s0,0,0,0v64.1Z"/>
    </g>
  </g>
  <path class="cls-1" d="M126.2,227.6c-8.9,0-16.8-3.9-22.3-10.1l-9.7,9.8-33.7-22.7c-2.5-1.7-5.8-1.4-8,.8l-33.5,30.2v-115.4c0-7.1,5.7-12.8,12.7-12.8h64.7v-12.8H31.7c-14,0-25.3,11.5-25.3,25.7v128.3c0,14.2,11.3,25.7,25.3,25.7h152c14,0,25.3-11.5,25.3-25.7v-20.8h-82.8Z"/>
</svg>