<?xml version="1.0" encoding="UTF-8"?><svg id="Ebene_1" xmlns="http://www.w3.org/2000/svg" viewBox="0 0 47.22 47.22"><defs><style>.cls-1{fill:#000;}.cls-1,.cls-2{stroke-width:0px;}.cls-2{fill:#fff;}</style></defs><circle class="cls-1" cx="23.61" cy="23.61" r="23.61"/><path class="cls-2" d="M16.52,12.12c0,1.72-1.09,3.12-3.12,3.12-1.87,0-3.12-1.4-3.12-2.97,0-1.72,1.25-3.28,3.12-3.28s3.12,1.4,3.12,3.12Z"/><rect class="cls-2" x="10.27" y="16.8" width="6.24" height="20.29"/><path class="cls-2" d="M31.5,17.11c-3.28,0-5.15,1.87-5.93,3.12h-.16l-.31-2.65h-5.62c0,1.72.16,3.75.16,6.09v13.42h6.24v-11.08c0-.62,0-1.09.16-1.56.47-1.09,1.25-2.5,2.96-2.5,2.18,0,3.12,1.87,3.12,4.37v10.77h6.24v-11.55c0-5.77-2.97-8.43-6.87-8.43Z"/></svg>