<?xml version="1.0" encoding="UTF-8"?><svg id="img" xmlns="http://www.w3.org/2000/svg" viewBox="0 0 310 310"><defs><style>.cls-1{fill:#000;stroke-width:0px;}</style></defs><path class="cls-1" d="M140.68,81.64c0,8.02-6.5,14.52-14.52,14.52s-14.52-6.5-14.52-14.52,6.5-14.52,14.52-14.52,14.52,6.5,14.52,14.52"/><path class="cls-1" d="M239.33,94.79l-3.76-3.76s0,0,0,0l-45.18-45.18s0,0,0,0l-3.76-3.76c-1.73-1.73-4.03-2.68-6.48-2.68h-93.72c-10.17,0-18.43,8.27-18.43,18.44v194.33c0,10.17,8.27,18.44,18.43,18.44h137.15c10.17,0,18.43-8.27,18.43-18.44V101.26c0-2.45-.95-4.75-2.68-6.48ZM187.75,61.59l32.07,32.07h-26.63c-3,0-5.43-2.44-5.43-5.44v-26.63ZM223.57,257.6H86.43c-3,0-5.43-2.44-5.43-5.44V57.83c0-3,2.44-5.44,5.43-5.44h88.32v35.83c0,10.17,8.27,18.44,18.43,18.44h35.83v145.5c0,3-2.44,5.44-5.43,5.44Z"/><path class="cls-1" d="M213.12,155.82h-116.24c-3.59,0-6.5,2.91-6.5,6.5s2.91,6.5,6.5,6.5h116.24c3.59,0,6.5-2.91,6.5-6.5s-2.91-6.5-6.5-6.5Z"/><path class="cls-1" d="M213.12,188.9h-116.24c-3.59,0-6.5,2.91-6.5,6.5s2.91,6.5,6.5,6.5h116.24c3.59,0,6.5-2.91,6.5-6.5s-2.91-6.5-6.5-6.5Z"/><path class="cls-1" d="M213.12,221.97h-116.24c-3.59,0-6.5,2.91-6.5,6.5s2.91,6.5,6.5,6.5h116.24c3.59,0,6.5-2.91,6.5-6.5s-2.91-6.5-6.5-6.5Z"/><path class="cls-1" d="M126.16,101.12c-16.89,0-30.58,9.87-30.58,22.04v6.07c0,2.46,1.99,4.45,4.45,4.45h52.27c2.46,0,4.45-1.99,4.45-4.45v-6.07c0-12.17-13.69-22.04-30.58-22.04Z"/></svg>