<?xml version="1.0" encoding="UTF-8"?><svg id="Ebene_1" xmlns="http://www.w3.org/2000/svg" viewBox="0 0 47.22 47.22"><defs><style>.cls-1{fill:#000;}.cls-1,.cls-2{stroke-width:0px;}.cls-2{fill:#fff;}</style></defs><circle class="cls-1" cx="23.61" cy="23.61" r="23.61"/><path class="cls-2" d="M9.89,10.42l2.5,28.07,11.22,3.11,11.27-3.12,2.5-28.06H9.89ZM32.73,36.67l-9.1,2.54-9.1-2.54-2.14-23.95h22.48l-2.14,23.95Z"/><polygon class="cls-2" points="31.93 19.6 32.25 16.15 23.62 16.15 14.98 16.14 15.92 26.54 23.62 26.56 27.87 26.56 27.46 31.03 23.62 32.06 19.77 31.02 19.53 28.27 16.07 28.27 16.56 33.67 23.62 35.64 30.67 33.68 31.62 23.12 23.62 23.12 19.07 23.1 18.76 19.58 23.62 19.6 31.93 19.6"/></svg>