<?xml version="1.0" encoding="UTF-8"?><svg id="img" xmlns="http://www.w3.org/2000/svg" viewBox="0 0 310 310"><defs><style>.cls-1{fill:#000;stroke-width:0px;}</style></defs><path class="cls-1" d="M46.74,101.69c0-14.95,12.12-27.06,27.06-27.06h162.39c14.95,0,27.06,12.12,27.06,27.06v108.26c0,14.95-12.12,27.06-27.06,27.06H73.81c-14.95,0-27.06-12.12-27.06-27.06v-108.26ZM73.81,88.16c-7.47,0-13.53,6.06-13.53,13.53v2.94l94.73,56.84,94.73-56.84v-2.94c0-7.47-6.06-13.53-13.53-13.53H73.81ZM249.73,120.4l-63.71,38.23,63.71,39.2v-77.43ZM249.27,213.45l-76.32-46.97-17.94,10.76-17.94-10.76-76.32,46.96c1.58,5.92,6.94,10.04,13.07,10.04h162.39c6.12,0,11.49-4.11,13.07-10.03M60.27,197.84l63.71-39.2-63.71-38.23v77.43Z"/></svg>