<?xml version="1.0" encoding="UTF-8"?><svg id="Ebene_1" xmlns="http://www.w3.org/2000/svg" viewBox="0 0 47.22 47.22"><defs><style>.cls-1{fill:#000;}.cls-1,.cls-2{stroke-width:0px;}.cls-2{fill:#fff;}</style></defs><circle class="cls-1" cx="23.61" cy="23.61" r="23.61"/><g id="vlpa"><g id="vlpb"><path class="cls-2" d="M17.16,14.09v19.48c0,.21-.09.3-.26.3h-3.71c-.17,0-.25-.09-.25-.3V14.09c0-.17.09-.25.26-.25h3.69c.11-.02.23.06.25.19.02.02.02.04.02.06Z"/><path class="cls-2" d="M28.09,34.09c-1.4.02-2.8-.26-4.07-.85-1.19-.55-2.17-1.46-2.86-2.57-.7-1.15-1.04-2.59-1.04-4.31-.02-1.4.34-2.78,1.04-3.99.72-1.23,1.76-2.25,3.01-2.93,1.32-.74,2.91-1.1,4.78-1.1.09,0,.23,0,.4.02s.36.02.59.04v-5.98c0-.13.06-.21.19-.21h3.84c.09-.02.17.06.19.13v18.04c0,.34.02.72.04,1.13.04.4.06.78.08,1.1,0,.13-.06.25-.19.3-.98.42-2.02.72-3.08.91-.95.17-1.93.26-2.91.26h0ZM29.95,30.31v-8.32c-.17-.04-.34-.08-.51-.09-.21-.02-.42-.04-.62-.04-.74,0-1.47.15-2.14.49-.64.32-1.19.79-1.61,1.4s-.62,1.42-.62,2.4c-.02.66.09,1.32.32,1.95.19.51.47.96.85,1.34.36.34.79.61,1.29.76.51.17,1.04.25,1.57.25.28,0,.55-.02.79-.04.25.02.47-.02.68-.09h0Z"/></g></g></svg>