<?xml version="1.0" encoding="UTF-8"?><svg id="Ebene_1" xmlns="http://www.w3.org/2000/svg" viewBox="0 0 47.22 47.22"><defs><style>.cls-1{fill:#000;}.cls-1,.cls-2{stroke-width:0px;}.cls-2{fill:#fff;}</style></defs><circle class="cls-1" cx="23.61" cy="23.61" r="23.61"/><path class="cls-2" d="M32.03,31.7v-8.34c.02-5.82.01-8.4-.02-8.52-.06-.22-.25-.44-.47-.55-.15-.08-.27-.09-.96-.09-.73,0-.8,0-.99.11-.22.12-.39.32-.46.58-.03.11-.05,2.31-.05,6.23v6.07l1.48,2.26,1.47,2.26Z"/><path class="cls-2" d="M32.49,37.97c-2.07-3.13-6.28-9.51-9.37-14.19-3.08-4.67-5.66-8.55-5.73-8.63-.25-.27-.4-.31-1.35-.31-.8,0-.88,0-1.07.1-.11.06-.27.19-.34.28l-.14.18v9.31s-.02,9.31-.02,9.31l.1.21c.07.13.17.25.31.34l.21.13h.8c.7,0,.83-.01.98-.09.19-.1.29-.19.41-.42.08-.16.09-.43.1-7.11,0-3.82.03-6.95.05-6.94.02,0,2.17,3.17,4.79,7.04l4.76,7.04,3.8,5.13c2.02,2.72,3.69,4.97,3.84,5.15.54-.29,1.07-.59,1.58-.92l-3.71-5.61Z"/></svg>