<?xml version="1.0" encoding="UTF-8"?><svg id="Ebene_1" xmlns="http://www.w3.org/2000/svg" viewBox="0 0 47.22 47.22"><defs><style>.cls-1{fill:#000;}.cls-1,.cls-2{stroke-width:0px;}.cls-2{fill:#fff;}</style></defs><circle class="cls-1" cx="23.61" cy="23.61" r="23.61"/><path class="cls-2" d="M30.91,12.57c-1.7.14-3.13.75-4.2,1.8-1.1,1.09-1.62,2.41-1.62,4.09,0,2.52,1.03,4.27,3.34,5.67.59.35,1.38.73,2.76,1.33,1.88.81,2.58,1.19,3.03,1.67.55.59.7,1.53.36,2.25-.07.14-.24.37-.4.53-.53.54-1.37.82-2.41.82-1.76,0-3.07-.72-4.13-2.28-.14-.21-.28-.38-.29-.38-.04,0-3.47,1.98-3.54,2.05-.05.04,0,.14.17.42,1.37,2.31,3.51,3.66,6.41,4.05.76.1,2.18.1,2.9,0,1.82-.26,3.19-.86,4.25-1.89,1.13-1.09,1.68-2.49,1.68-4.26,0-1.13-.18-2.01-.6-2.88-.29-.6-.58-1-1.07-1.5-.95-.96-2.18-1.7-4.64-2.75-1.86-.8-2.48-1.14-2.89-1.58-.39-.42-.56-.91-.52-1.52.03-.49.17-.82.46-1.14.43-.46.92-.66,1.69-.65.87,0,1.43.23,2.01.8.2.2.46.52.59.71.14.22.24.34.28.33.12-.05,3.39-2.17,3.39-2.2,0-.02-.17-.28-.37-.59-.43-.65-1.21-1.46-1.75-1.82-.99-.66-2.05-1-3.45-1.1-.69-.05-.78-.05-1.42,0Z"/><path class="cls-2" d="M16.88,20.76v7.97s-.11.37-.11.37c-.13.49-.28.78-.55,1.05-.38.38-.87.54-1.68.54-1.16,0-1.85-.49-2.66-1.87-.13-.22-.25-.39-.26-.39-.02,0-.83.5-1.81,1.09l-1.78,1.08.14.27c.81,1.61,2.2,2.83,3.89,3.39,1.78.59,4.06.54,5.73-.14,2.01-.81,3.18-2.49,3.49-4.98.03-.25.05-3.07.05-8.37v-7.99h-4.41l-.02,7.97Z"/></svg>