<?xml version="1.0" encoding="UTF-8"?><svg id="img" xmlns="http://www.w3.org/2000/svg" viewBox="0 0 310 310"><defs><style>.cls-1,.cls-2{fill:#000;stroke-width:0px;}.cls-2{fill-rule:evenodd;}</style></defs><path class="cls-1" d="M192.11,130.26c0,20.5-16.62,37.11-37.11,37.11s-37.11-16.62-37.11-37.11,16.62-37.11,37.11-37.11,37.11,16.62,37.11,37.11"/><path class="cls-2" d="M56.04,155c0-54.66,44.31-98.96,98.96-98.96s98.96,44.31,98.96,98.96-44.31,98.96-98.96,98.96-98.96-44.31-98.96-98.96M155,68.41c-47.82,0-86.59,38.77-86.59,86.6,0,19.65,6.68,38.71,18.95,54.05,8.78-14.15,28.12-29.32,67.64-29.32s58.85,15.15,67.64,29.32c29.86-37.36,23.77-91.85-13.59-121.71-15.35-12.26-34.41-18.95-54.06-18.95"/></svg>