<?xml version="1.0" encoding="UTF-8"?><svg id="Ebene_1" xmlns="http://www.w3.org/2000/svg" viewBox="0 0 47.22 47.22"><defs><style>.cls-1{fill:#000;}.cls-1,.cls-2{stroke-width:0px;}.cls-2{fill:#fff;}</style></defs><circle class="cls-1" cx="23.61" cy="23.61" r="23.61"/><path class="cls-2" d="M10.33,19.67h26.56v16.28c0,1.01-.82,1.83-1.83,1.83H12.16c-1.01,0-1.83-.82-1.83-1.83v-16.28h0Z"/><rect class="cls-1" x="12.78" y="20.56" width="21.67" height="14.77"/><rect class="cls-2" x="10.33" y="16.28" width="26.56" height="3.39"/><polygon class="cls-1" points="12.46 19.67 15.52 16.28 17.96 16.28 14.89 19.67 12.46 19.67"/><polygon class="cls-1" points="29.26 19.67 32.33 16.28 34.76 16.28 31.7 19.67 29.26 19.67"/><polygon class="cls-1" points="20.86 19.67 23.93 16.28 26.36 16.28 23.29 19.67 20.86 19.67"/><rect class="cls-2" x="9.61" y="9.95" width="26.56" height="3.39" transform="translate(-2.03 5.44) rotate(-12.98)"/><polygon class="cls-1" points="12.4 15.8 14.63 11.81 17 11.27 14.77 15.26 12.4 15.8"/><polygon class="cls-1" points="28.78 12.03 31.01 8.04 33.38 7.49 31.15 11.48 28.78 12.03"/><polygon class="cls-1" points="20.59 13.92 22.82 9.93 25.19 9.38 22.96 13.37 20.59 13.92"/><polygon class="cls-2" points="21.02 31.57 27.44 27.95 21.02 24.32 21.02 31.57"/></svg>