<?xml version="1.0" encoding="UTF-8"?><svg id="Ebene_1" xmlns="http://www.w3.org/2000/svg" viewBox="0 0 47.22 47.22"><defs><style>.cls-1{fill:#000;}.cls-1,.cls-2{stroke-width:0px;}.cls-2{fill:#fff;}</style></defs><circle class="cls-1" cx="23.61" cy="23.61" r="23.61"/><circle class="cls-2" cx="23.61" cy="23.6" r="3.36"/><path class="cls-2" d="M42.45,23.6c0-2.64-3.1-4.92-7.92-6.31,1.21-4.86.78-8.69-1.5-10.01-2.29-1.32-5.82.22-9.42,3.71-3.6-3.48-7.13-5.02-9.42-3.71-2.29,1.32-2.71,5.15-1.5,10.01-4.82,1.38-7.92,3.67-7.92,6.31s3.1,4.93,7.92,6.31c-1.21,4.86-.78,8.69,1.5,10.01.56.33,1.2.49,1.9.49,1.67,0,3.69-.92,5.88-2.7.55-.44,1.1-.95,1.64-1.48.55.53,1.09,1.03,1.64,1.48,2.19,1.78,4.21,2.7,5.88,2.7.7,0,1.34-.16,1.9-.49,2.29-1.32,2.71-5.15,1.5-10.01,4.82-1.38,7.92-3.67,7.92-6.31ZM32.21,8.7c1.48.86,1.8,3.96.74,8.19-1.54-.35-3.22-.62-5.01-.78-1.04-1.47-2.11-2.79-3.19-3.95,2.49-2.41,4.8-3.71,6.38-3.71.41,0,.77.09,1.08.26ZM28.86,26.64c-.58,1.01-1.19,1.98-1.82,2.9-1.1.08-2.24.13-3.43.13s-2.33-.05-3.43-.13c-.63-.92-1.24-1.89-1.82-2.9-.59-1.03-1.12-2.04-1.6-3.03.48-.99,1.01-2,1.6-3.03.59-1.03,1.2-1.99,1.82-2.9,1.1-.08,2.24-.13,3.43-.13s2.33.05,3.43.13c.62.91,1.23,1.87,1.82,2.9.59,1.03,1.12,2.04,1.6,3.03-.48.99-1.01,2-1.6,3.03ZM31.33,25.53c.47,1.12.86,2.19,1.18,3.21-1.05.24-2.17.44-3.37.59.39-.61.78-1.23,1.15-1.87.37-.65.72-1.29,1.05-1.93ZM23.61,33.88c-.74-.81-1.48-1.69-2.19-2.63.72.03,1.45.05,2.19.05s1.47-.02,2.19-.05c-.72.95-1.45,1.83-2.19,2.63ZM18.09,29.33c-1.2-.15-2.32-.35-3.37-.59.32-1.02.71-2.1,1.18-3.21.33.64.68,1.28,1.05,1.93.37.64.75,1.26,1.15,1.87ZM15.89,21.68c-.47-1.12-.86-2.19-1.18-3.21,1.05-.24,2.17-.44,3.37-.59-.39.61-.77,1.23-1.14,1.87-.37.64-.72,1.29-1.05,1.93ZM23.61,13.32c.73.79,1.46,1.67,2.19,2.64-.72-.03-1.45-.05-2.19-.05s-1.47.02-2.19.05c.73-.96,1.46-1.85,2.19-2.64ZM30.28,19.75c-.37-.64-.76-1.27-1.14-1.87,1.2.15,2.32.35,3.37.59-.32,1.03-.71,2.1-1.18,3.21-.33-.64-.68-1.28-1.05-1.93ZM15.01,8.7c.3-.18.67-.26,1.08-.26,1.59,0,3.9,1.3,6.38,3.71-1.08,1.16-2.15,2.49-3.19,3.95-1.79.17-3.47.43-5.01.78-1.06-4.22-.75-7.33.74-8.19ZM6.41,23.6c0-1.71,2.53-3.54,6.72-4.73.47,1.51,1.08,3.1,1.83,4.73-.75,1.63-1.36,3.22-1.83,4.73-4.19-1.2-6.72-3.02-6.72-4.73ZM20.94,36.44c-2.51,2.04-4.67,2.79-5.93,2.07-1.48-.86-1.8-3.96-.74-8.19,1.54.35,3.22.62,5.01.78,1.02,1.45,2.09,2.78,3.19,3.96-.51.5-1.02.97-1.53,1.38ZM32.21,38.5c-1.26.73-3.42-.03-5.93-2.07-.51-.41-1.02-.88-1.53-1.38,1.09-1.18,2.16-2.51,3.19-3.96,1.79-.17,3.47-.43,5.01-.78,1.06,4.22.74,7.33-.74,8.19ZM34.1,28.33c-.47-1.51-1.08-3.1-1.83-4.73.75-1.63,1.36-3.22,1.83-4.73,4.19,1.2,6.72,3.02,6.72,4.73s-2.53,3.54-6.72,4.73Z"/></svg>