<?xml version="1.0" encoding="UTF-8"?><svg id="Ebene_1" xmlns="http://www.w3.org/2000/svg" viewBox="0 0 47.22 47.22"><defs><style>.cls-1{fill:#fff;stroke:#000;stroke-miterlimit:10;stroke-width:.5px;}.cls-2{fill:#000;stroke-width:0px;}</style></defs><circle class="cls-2" cx="23.61" cy="23.61" r="23.61"/><path class="cls-1" d="M12.6,13.48v12.81c-.85-.24-1.82-.23-2.78.08-2.25.73-3.55,2.86-2.9,4.75.65,1.89,2.99,2.83,5.24,2.1,1.87-.61,3.07-2.18,3.06-3.77h0v-11.99l8.4-3.76v7.65c-.85-.24-1.82-.23-2.78.08-2.25.73-3.55,2.86-2.9,4.75.65,1.89,2.99,2.83,5.24,2.1,1.87-.61,3.07-2.18,3.06-3.77h0V7.37l-13.65,6.1Z"/><path class="cls-1" d="M38.7,18.95c-.89-1.92-2.87-3.51-2.87-3.51l-2.63,1.17v12.8c-.85-.24-1.82-.23-2.78.08-2.25.73-3.55,2.86-2.9,4.75.65,1.89,2.99,2.83,5.24,2.1,1.87-.61,3.07-2.18,3.06-3.77h0v-11.98c2.1.84,2.87,3.79,2.87,3.79h1.52s-.28-2.74-1.52-5.42Z"/></svg>