<?xml version="1.0" encoding="UTF-8"?><svg id="Ebene_1" xmlns="http://www.w3.org/2000/svg" viewBox="0 0 47.22 47.22"><defs><style>.cls-1{fill:#000;}.cls-1,.cls-2{stroke-width:0px;}.cls-2{fill:#fff;}</style></defs><circle class="cls-1" cx="23.61" cy="23.61" r="23.61"/><path class="cls-2" d="M26.2,15.3c-3.33.55-6.62,1.1-9.94,1.66v13.29c-1.65.55-3.29,1.1-4.96,1.66,0-.14-.02-.24-.02-.34,0-5.04,0-10.08,0-15.12,0-.24.08-.34.3-.43,4.8-1.86,9.59-3.73,14.39-5.58.16-.06.37-.07.53-.03,2.56.76,5.11,1.53,7.67,2.28.31.09.38.23.38.53,0,6.93,0,13.87,0,20.8,0,.29-.08.42-.37.5-2.57.76-5.13,1.53-7.7,2.3-.15.04-.33.04-.48,0-4.69-1.56-9.39-3.12-14.08-4.69-.08-.03-.16-.06-.23-.16,4.83.56,9.65,1.12,14.51,1.68V15.3Z"/></svg>