<?xml version="1.0" encoding="UTF-8"?>
<svg id="Ebene_1" data-name="Ebene 1" xmlns="http://www.w3.org/2000/svg" version="1.1" viewBox="0 0 200 49">
  <defs>
    <style>
      .cls-1 {
        fill: #fff;
        stroke-width: 0px;
      }
    </style>
  </defs>
  <polygon class="cls-1" points="5.2 11.7 5.2 11.8 5.2 36.9 5.2 36.9 25.9 49 28.8 47.3 8 35.3 8 13.4 22.5 5 22.5 21.9 10.9 28.6 10.9 28.7 10.9 32 25.4 23.5 25.4 23.5 25.4 0 25.4 0 5.2 11.7"/>
  <path class="cls-1" d="M28.2,25.2l-15.9,9.3h0s19.3,11.3,19.3,11.3l15.9-9.3h0V12.9h0S28.2,1.7,28.2,1.7v23.5h0ZM18,34.5l13.1-7.6h0V6.6l13.6,7.9v20.2l-13.1,7.6-13.6-7.9h0Z"/>
  <polygon class="cls-1" points="52.7 22.6 52.7 9.4 52.7 9.4 41.9 3.1 41.9 6.4 49.9 11.1 49.9 20.9 52.7 22.6"/>
  <polygon class="cls-1" points="0 27.3 0 40.4 0 40.4 10.9 46.8 10.9 43.5 2.8 38.8 2.8 29 0 27.3"/>
  <path class="cls-1" d="M67.7,23v-13.3h6.6c2.5,0,4.5,1.8,4.5,4.5s-2,4.5-4.5,4.5h-3.4v4.4h-3.2ZM70.9,15.9h2.7c1.2,0,1.9-.9,1.9-1.8s-.7-1.7-1.9-1.7h-2.7v3.5Z"/>
  <path class="cls-1" d="M84,9.7v5.2h5.7v-5.2h3.2v13.3h-3.2v-5.5h-5.7v5.5h-3.2v-13.3s3.2,0,3.2,0Z"/>
  <path class="cls-1" d="M99.3,23h-3.2v-13.3h3.2v13.3Z"/>
  <path class="cls-1" d="M112.4,23h-9.9v-13.3h3.2v10.6h6.7v2.7Z"/>
  <path class="cls-1" d="M124,23h-9.9v-13.3h3.2v10.6h6.7v2.7Z"/>
  <path class="cls-1" d="M129,23h-3.2v-13.3h3.2v13.3Z"/>
  <path class="cls-1" d="M132.2,23v-13.3h6.6c2.5,0,4.5,1.8,4.5,4.5s-2,4.5-4.5,4.5h-3.4v4.4h-3.2ZM135.4,15.9h2.7c1.2,0,1.9-.9,1.9-1.8s-.7-1.7-1.9-1.7h-2.7v3.5Z"/>
  <path class="cls-1" d="M66.9,33.1c0-3.8,3.1-6.8,6.9-6.8s6.9,3,6.9,6.8-3,6.9-6.9,6.9-6.9-2.9-6.9-6.9ZM70.2,33.1c0,2.1,1.5,3.8,3.6,3.8s3.6-1.5,3.6-3.8-1.6-3.7-3.6-3.7-3.6,1.6-3.6,3.7Z"/>
  <path class="cls-1" d="M83,26.5h9.4v2.7h-6.2v2.5h5.4v2.7h-5.4v2.7h6.3v2.7h-9.5v-13.3h0Z"/>
  <path class="cls-1" d="M98,26.5v5.2h5.7v-5.2h3.2v13.3h-3.2v-5.5h-5.7v5.5h-3.2v-13.3h3.2Z"/>
  <path class="cls-1" d="M119.9,39.8h-9.9v-13.3h3.2v10.6h6.7v2.7Z"/>
  <path class="cls-1" d="M121.7,26.5h9.4v2.7h-6.2v2.5h5.4v2.7h-5.4v2.7h6.3v2.7h-9.5v-13.3h0Z"/>
  <path class="cls-1" d="M133.5,39.8v-13.3h2.7l6.7,8.1v-8.1h3.2v13.3h-2.8l-6.6-8v8h-3.2Z"/>
  <path class="cls-1" d="M149.2,39.8v-13.3h6.2c2.5,0,4.2,1.3,4.2,3.6s-.7,2.4-1.8,3c1.6.6,2.2,1.7,2.2,3.1s-1.5,3.6-4.1,3.6h-6.6ZM154.9,31.9c.9,0,1.4-.7,1.4-1.4s-.5-1.4-1.5-1.4h-2.4v2.7s2.5,0,2.5,0ZM155,37.1c.9,0,1.5-.7,1.5-1.4s-.5-1.4-1.5-1.4h-2.6v2.7h2.6Z"/>
  <path class="cls-1" d="M162.3,26.5h9.4v2.7h-6.2v2.5h5.4v2.7h-5.4v2.7h6.3v2.7h-9.5v-13.3h0Z"/>
  <path class="cls-1" d="M174,39.8v-13.3h6.7c2.5,0,4.5,1.8,4.5,4.3s-1.1,3.4-2.6,4l2.8,5h-3.5l-2.5-4.6h-2.2v4.6h-3.2ZM177.2,32.5h2.8c1.2,0,1.9-.7,1.9-1.7s-.7-1.6-1.9-1.6h-2.8v3.2h0Z"/>
  <path class="cls-1" d="M193.4,26.3c2.4,0,4.6,1.3,5.7,3l-2.5,1.8c-.6-.9-1.6-1.8-3.2-1.8s-3.7,1.6-3.7,3.8,1.5,3.8,3.7,3.8,2.8-.6,3.2-1.9h-3.5v-2.7h6.9c0,.4,0,.8,0,1.4,0,3.6-2.9,6.2-6.6,6.2s-7-3-7-6.9,3.1-6.8,7-6.8h0Z"/>
</svg>